<svg width="640" height="512" xmlns="http://www.w3.org/2000/svg" class="svg-inline--fa fa-google-plus-g fa-w-20">

 <g>
  <title>background</title>
  <rect fill="none" id="canvas_background" height="602" width="802" y="-1" x="-1"/>
 </g>
 <g>
  <title>Layer 1</title>
  <path id="svg_1" d="m386.061,228.496c1.834,9.692 3.143,19.384 3.143,31.956c0,109.753 -73.605,187.548 -184.404,187.548c-106.084,0 -192,-85.915 -192,-192s85.916,-192 192,-192c51.864,0 95.083,18.859 128.611,50.292l-52.126,50.03c-14.145,-13.621 -39.028,-29.599 -76.485,-29.599c-65.484,0 -118.92,54.221 -118.92,121.277c0,67.056 53.436,121.277 118.92,121.277c75.961,0 104.513,-54.745 108.965,-82.773l-108.965,0l0,-66.009l181.261,0l0,0.001zm185.406,6.437l0,-55.733l-56.001,0l0,55.733l-55.733,0l0,56.001l55.733,0l0,55.733l56.001,0l0,-55.733l55.733,0l0,-56.001l-55.733,0z" fill="#709dca"/>
 </g>
</svg>