<svg width="448" height="512" xmlns="http://www.w3.org/2000/svg" class="svg-inline--fa fa-invision fa-w-14">

 <g>
  <title>background</title>
  <rect fill="none" id="canvas_background" height="602" width="802" y="-1" x="-1"/>
 </g>
 <g>
  <title>Layer 1</title>
  <path id="svg_1" d="m407.4,32l-366.8,0c-22.4,0 -40.6,18.2 -40.6,40.6l0,366.8c0,22.4 18.2,40.6 40.6,40.6l366.8,0c22.4,0 40.6,-18.2 40.6,-40.6l0,-366.8c0,-22.4 -18.2,-40.6 -40.6,-40.6zm-231.3,113.6c0.4,23.4 -22.4,27.3 -26.6,27.4c-14.9,0 -27.1,-12 -27.1,-27c0.1,-35.2 53.1,-35.5 53.7,-0.4zm156.7,231.4c-65.6,0 -34.1,-74 -25,-106.6c14.1,-46.4 -45.2,-59 -59.9,0.7l-25.8,103.3l-45.1,0l8.1,-32.5c-31.5,51.8 -94.6,44.4 -94.6,-4.3c0.1,-14.3 0.9,-14 23,-104.1l-31.8,0l9.7,-35.6l76.4,0c-33.6,133.7 -32.6,126.9 -32.9,138.2c0,20.9 40.9,13.5 57.4,-23.2l19.8,-79.4l-32.3,0l9.7,-35.6l68.8,0l-8.9,40.5c40.5,-75.5 127.9,-47.8 101.8,38c-14.2,51.1 -14.6,50.7 -14.9,58.8c0,15.5 17.5,22.6 31.8,-16.9l17.9,6.7c-10.5,36.7 -29.4,52 -53.2,52z" fill="#709dca"/>
 </g>
</svg>