<svg width="15" height="15" xmlns="http://www.w3.org/2000/svg">

 <g>
  <title>background</title>
  <rect fill="none" id="canvas_background" height="402" width="582" y="-1" x="-1"/>
 </g>
 <g>
  <title>Layer 1</title>
  <g stroke="null" id="surface1">
   <path stroke="null" id="svg_1" fill-rule="nonzero" fill="#6e6e6e" d="m14.51953,5.51563c0.11328,-0.08985 0.28125,-0.00391 0.28125,0.13671l0,5.91407c0,0.76562 -0.61719,1.38672 -1.38672,1.38672l-12.02734,0c-0.76563,0 -1.38672,-0.6211 -1.38672,-1.38672l0,-5.91016c0,-0.14453 0.16406,-0.23047 0.28125,-0.13672c0.64844,0.5 1.50781,1.14063 4.45313,3.28516c0.61328,0.4414 1.64062,1.3789 2.66796,1.375c1.03125,0.00781 2.08204,-0.94922 2.66797,-1.375c2.94922,-2.14453 3.80469,-2.78516 4.44922,-3.28906zm-7.11719,3.73437c0.66797,0.01172 1.63282,-0.84375 2.1211,-1.19531c3.83594,-2.78516 4.1289,-3.02735 5.01172,-3.72266c0.16797,-0.125 0.26562,-0.33203 0.26562,-0.54297l0,-0.55078c0,-0.76562 -0.61719,-1.38672 -1.38672,-1.38672l-12.02734,0c-0.76563,0 -1.38672,0.6211 -1.38672,1.38672l0,0.54688c0,0.21484 0.10156,0.41797 0.26563,0.54687c0.88281,0.69531 1.17578,0.9375 5.01562,3.72266c0.48438,0.35156 1.44922,1.20703 2.12109,1.19531zm0,0"/>
  </g>
 </g>
</svg>