<svg width="13" height="14" xmlns="http://www.w3.org/2000/svg">

 <g>
  <title>background</title>
  <rect fill="none" id="canvas_background" height="402" width="582" y="-1" x="-1"/>
 </g>
 <g>
  <title>Layer 1</title>
  <g id="surface1">
   <path id="svg_1" fill-rule="nonzero" fill="#6e6e6e" d="m6.5,6.699219c2.050781,0 3.714844,-1.5 3.714844,-3.347657c0,-1.851562 -1.664063,-3.351562 -3.714844,-3.351562c-2.050781,0 -3.714844,1.5 -3.714844,3.351562c0,1.847657 1.664063,3.347657 3.714844,3.347657zm2.597656,0.839843l-0.480468,0c-0.644532,0.265626 -1.363282,0.417969 -2.117188,0.417969c-0.753906,0 -1.46875,-0.152343 -2.117188,-0.417969l-0.480468,0c-2.15625,0 -3.902344,1.574219 -3.902344,3.515626l0,1.085937c0,0.691406 0.625,1.257813 1.394531,1.257813l10.210938,0c0.769531,0 1.394531,-0.566407 1.394531,-1.257813l0,-1.085937c0,-1.941407 -1.746094,-3.515626 -3.902344,-3.515626zm0,0"/>
  </g>
 </g>
</svg>