<svg width="15" height="15" xmlns="http://www.w3.org/2000/svg">

 <g>
  <title>background</title>
  <rect fill="none" id="canvas_background" height="402" width="582" y="-1" x="-1"/>
 </g>
 <g>
  <title>Layer 1</title>
  <g id="surface1">
   <path id="svg_1" fill-rule="nonzero" fill="#6e6e6e" d="m14.191406,10.324219l-3.199218,-1.371094c-0.277344,-0.121094 -0.601563,-0.039063 -0.796876,0.195313l-1.414062,1.730468c-2.21875,-1.050781 -4.007812,-2.832031 -5.054688,-5.054687l1.726563,-1.414063c0.238281,-0.195312 0.316406,-0.515625 0.199219,-0.796875l-1.371094,-3.195312c-0.128906,-0.304688 -0.460938,-0.476563 -0.78125,-0.398438l-2.972656,0.6875c-0.308594,0.0625 -0.527344,0.339844 -0.527344,0.660157c0,7.320312 5.929688,13.238281 13.238281,13.238281c0.320313,0 0.597657,-0.21875 0.671875,-0.53125l0.683594,-2.964844c0.070312,-0.324219 -0.09375,-0.65625 -0.402344,-0.789063l0,0.003907zm0,0"/>
  </g>
 </g>
</svg>