<svg width="290" height="303" xmlns="http://www.w3.org/2000/svg" preserveAspectRatio="xMidYMid meet">

 <g>
  <title>background</title>
  <rect fill="none" id="canvas_background" height="402" width="582" y="-1" x="-1"/>
 </g>
 <g>
  <title>Layer 1</title>
  <g id="svg_1" fill="#000000" transform="translate(0,303) scale(0.10000000149011612,-0.10000000149011612) ">
   <path fill="#394b50" id="svg_2" d="m1295,2960c-227,-26 -474,-124 -665,-263c-79,-58 -223,-201 -284,-282c-361,-479 -378,-1124 -44,-1628c74,-111 251,-291 358,-364c103,-70 238,-136 361,-177c103,-35 260,-66 331,-66c34,0 39,-4 70,-60c18,-33 35,-60 38,-60c3,0 20,27 38,60c30,54 37,60 65,60c67,0 226,32 326,66c203,68 371,168 523,313c516,490 581,1285 152,1857c-70,93 -231,246 -324,309c-160,107 -348,185 -529,219c-104,20 -311,28 -416,16z"/>
  </g>
 </g>
</svg>